<mxfile host="Electron" modified="2024-03-19T17:03:03.626Z" agent="Mozilla/5.0 (X11; Linux x86_64) AppleWebKit/537.36 (KHTML, like Gecko) draw.io/21.1.2 Chrome/106.0.5249.199 Electron/21.4.3 Safari/537.36" etag="j14N-wsdMkJLEuxFnFVe" version="21.1.2" type="device">
  <diagram name="Page-1" id="K4JvfOPezdbW2CZH5aZD">
    <mxGraphModel dx="2018" dy="950" grid="1" gridSize="10" guides="1" tooltips="1" connect="1" arrows="1" fold="1" page="1" pageScale="1" pageWidth="1654" pageHeight="1169" math="0" shadow="0">
      <root>
        <mxCell id="0" />
        <mxCell id="1" parent="0" />
        <mxCell id="PBC2gBNQ4anp6FJxkZ_d-15" style="edgeStyle=orthogonalEdgeStyle;rounded=0;orthogonalLoop=1;jettySize=auto;html=1;exitX=1;exitY=0.5;exitDx=0;exitDy=0;entryX=0;entryY=0.5;entryDx=0;entryDy=0;" edge="1" parent="1" source="PBC2gBNQ4anp6FJxkZ_d-1" target="PBC2gBNQ4anp6FJxkZ_d-3">
          <mxGeometry relative="1" as="geometry" />
        </mxCell>
        <mxCell id="PBC2gBNQ4anp6FJxkZ_d-1" value="Lettura Credibilità Precedente" style="ellipse;whiteSpace=wrap;html=1;" vertex="1" parent="1">
          <mxGeometry x="1300" y="400" width="120" height="80" as="geometry" />
        </mxCell>
        <mxCell id="PBC2gBNQ4anp6FJxkZ_d-14" style="edgeStyle=orthogonalEdgeStyle;rounded=0;orthogonalLoop=1;jettySize=auto;html=1;exitX=1;exitY=0.5;exitDx=0;exitDy=0;" edge="1" parent="1" source="PBC2gBNQ4anp6FJxkZ_d-2" target="PBC2gBNQ4anp6FJxkZ_d-1">
          <mxGeometry relative="1" as="geometry" />
        </mxCell>
        <mxCell id="PBC2gBNQ4anp6FJxkZ_d-18" style="edgeStyle=orthogonalEdgeStyle;rounded=0;orthogonalLoop=1;jettySize=auto;html=1;exitX=0.5;exitY=1;exitDx=0;exitDy=0;entryX=0.5;entryY=1;entryDx=0;entryDy=0;" edge="1" parent="1" source="PBC2gBNQ4anp6FJxkZ_d-2" target="PBC2gBNQ4anp6FJxkZ_d-5">
          <mxGeometry relative="1" as="geometry">
            <Array as="points">
              <mxPoint x="1150" y="520" />
              <mxPoint x="500" y="520" />
            </Array>
          </mxGeometry>
        </mxCell>
        <mxCell id="PBC2gBNQ4anp6FJxkZ_d-32" style="edgeStyle=orthogonalEdgeStyle;rounded=0;orthogonalLoop=1;jettySize=auto;html=1;entryX=0.5;entryY=1;entryDx=0;entryDy=0;" edge="1" parent="1" source="PBC2gBNQ4anp6FJxkZ_d-2" target="PBC2gBNQ4anp6FJxkZ_d-6">
          <mxGeometry relative="1" as="geometry">
            <Array as="points">
              <mxPoint x="1150" y="750" />
              <mxPoint x="280" y="750" />
            </Array>
          </mxGeometry>
        </mxCell>
        <mxCell id="PBC2gBNQ4anp6FJxkZ_d-2" value="Indirizzo Credibilità" style="ellipse;whiteSpace=wrap;html=1;" vertex="1" parent="1">
          <mxGeometry x="1090" y="400" width="120" height="80" as="geometry" />
        </mxCell>
        <mxCell id="PBC2gBNQ4anp6FJxkZ_d-17" style="edgeStyle=orthogonalEdgeStyle;rounded=0;orthogonalLoop=1;jettySize=auto;html=1;exitX=0.5;exitY=1;exitDx=0;exitDy=0;entryX=1;entryY=1;entryDx=0;entryDy=0;" edge="1" parent="1" source="PBC2gBNQ4anp6FJxkZ_d-3" target="PBC2gBNQ4anp6FJxkZ_d-5">
          <mxGeometry relative="1" as="geometry">
            <Array as="points">
              <mxPoint x="1580" y="500" />
              <mxPoint x="542" y="500" />
            </Array>
          </mxGeometry>
        </mxCell>
        <mxCell id="PBC2gBNQ4anp6FJxkZ_d-38" style="edgeStyle=orthogonalEdgeStyle;rounded=0;orthogonalLoop=1;jettySize=auto;html=1;exitX=0.5;exitY=1;exitDx=0;exitDy=0;entryX=0.5;entryY=1;entryDx=0;entryDy=0;" edge="1" parent="1" source="PBC2gBNQ4anp6FJxkZ_d-3" target="PBC2gBNQ4anp6FJxkZ_d-6">
          <mxGeometry relative="1" as="geometry">
            <Array as="points">
              <mxPoint x="1580" y="830" />
              <mxPoint x="280" y="830" />
            </Array>
          </mxGeometry>
        </mxCell>
        <mxCell id="PBC2gBNQ4anp6FJxkZ_d-3" value="Scrittura Credibilità Precedente" style="ellipse;whiteSpace=wrap;html=1;" vertex="1" parent="1">
          <mxGeometry x="1520" y="400" width="120" height="80" as="geometry" />
        </mxCell>
        <mxCell id="PBC2gBNQ4anp6FJxkZ_d-12" style="edgeStyle=orthogonalEdgeStyle;rounded=0;orthogonalLoop=1;jettySize=auto;html=1;exitX=1;exitY=0.5;exitDx=0;exitDy=0;entryX=0;entryY=0.5;entryDx=0;entryDy=0;" edge="1" parent="1" source="PBC2gBNQ4anp6FJxkZ_d-4" target="PBC2gBNQ4anp6FJxkZ_d-8">
          <mxGeometry relative="1" as="geometry" />
        </mxCell>
        <mxCell id="PBC2gBNQ4anp6FJxkZ_d-4" value="Lettura Parola Precedente" style="ellipse;whiteSpace=wrap;html=1;" vertex="1" parent="1">
          <mxGeometry x="650" y="400" width="120" height="80" as="geometry" />
        </mxCell>
        <mxCell id="PBC2gBNQ4anp6FJxkZ_d-11" style="edgeStyle=orthogonalEdgeStyle;rounded=0;orthogonalLoop=1;jettySize=auto;html=1;exitX=1;exitY=0.5;exitDx=0;exitDy=0;" edge="1" parent="1" source="PBC2gBNQ4anp6FJxkZ_d-5" target="PBC2gBNQ4anp6FJxkZ_d-4">
          <mxGeometry relative="1" as="geometry" />
        </mxCell>
        <mxCell id="PBC2gBNQ4anp6FJxkZ_d-16" style="edgeStyle=orthogonalEdgeStyle;rounded=0;orthogonalLoop=1;jettySize=auto;html=1;entryX=0.5;entryY=0;entryDx=0;entryDy=0;" edge="1" parent="1" source="PBC2gBNQ4anp6FJxkZ_d-5" target="PBC2gBNQ4anp6FJxkZ_d-2">
          <mxGeometry relative="1" as="geometry">
            <Array as="points">
              <mxPoint x="500" y="380" />
              <mxPoint x="1150" y="380" />
            </Array>
          </mxGeometry>
        </mxCell>
        <mxCell id="PBC2gBNQ4anp6FJxkZ_d-5" value="Indirizzo Parola" style="ellipse;whiteSpace=wrap;html=1;" vertex="1" parent="1">
          <mxGeometry x="440" y="400" width="120" height="80" as="geometry" />
        </mxCell>
        <mxCell id="PBC2gBNQ4anp6FJxkZ_d-10" style="edgeStyle=orthogonalEdgeStyle;rounded=0;orthogonalLoop=1;jettySize=auto;html=1;exitX=1;exitY=0.5;exitDx=0;exitDy=0;" edge="1" parent="1" source="PBC2gBNQ4anp6FJxkZ_d-6" target="PBC2gBNQ4anp6FJxkZ_d-5">
          <mxGeometry relative="1" as="geometry" />
        </mxCell>
        <mxCell id="PBC2gBNQ4anp6FJxkZ_d-6" value="Attesa" style="ellipse;whiteSpace=wrap;html=1;" vertex="1" parent="1">
          <mxGeometry x="220" y="400" width="120" height="80" as="geometry" />
        </mxCell>
        <mxCell id="PBC2gBNQ4anp6FJxkZ_d-9" style="edgeStyle=orthogonalEdgeStyle;rounded=0;orthogonalLoop=1;jettySize=auto;html=1;exitX=1;exitY=0.5;exitDx=0;exitDy=0;" edge="1" parent="1" source="PBC2gBNQ4anp6FJxkZ_d-7" target="PBC2gBNQ4anp6FJxkZ_d-6">
          <mxGeometry relative="1" as="geometry" />
        </mxCell>
        <mxCell id="PBC2gBNQ4anp6FJxkZ_d-43" style="edgeStyle=orthogonalEdgeStyle;rounded=0;orthogonalLoop=1;jettySize=auto;html=1;exitX=0.5;exitY=0;exitDx=0;exitDy=0;entryX=0;entryY=0;entryDx=0;entryDy=0;" edge="1" parent="1" source="PBC2gBNQ4anp6FJxkZ_d-7" target="PBC2gBNQ4anp6FJxkZ_d-5">
          <mxGeometry relative="1" as="geometry">
            <Array as="points">
              <mxPoint x="80" y="380" />
              <mxPoint x="458" y="380" />
            </Array>
          </mxGeometry>
        </mxCell>
        <mxCell id="PBC2gBNQ4anp6FJxkZ_d-7" value="Reset" style="ellipse;whiteSpace=wrap;html=1;" vertex="1" parent="1">
          <mxGeometry x="20" y="400" width="120" height="80" as="geometry" />
        </mxCell>
        <mxCell id="PBC2gBNQ4anp6FJxkZ_d-13" style="edgeStyle=orthogonalEdgeStyle;rounded=0;orthogonalLoop=1;jettySize=auto;html=1;exitX=1;exitY=0.5;exitDx=0;exitDy=0;" edge="1" parent="1" source="PBC2gBNQ4anp6FJxkZ_d-8" target="PBC2gBNQ4anp6FJxkZ_d-2">
          <mxGeometry relative="1" as="geometry" />
        </mxCell>
        <mxCell id="PBC2gBNQ4anp6FJxkZ_d-8" value="Scrittura Parola Precedente" style="ellipse;whiteSpace=wrap;html=1;" vertex="1" parent="1">
          <mxGeometry x="870" y="400" width="120" height="80" as="geometry" />
        </mxCell>
        <mxCell id="PBC2gBNQ4anp6FJxkZ_d-22" value="i_rst = 0" style="text;html=1;align=center;verticalAlign=middle;resizable=0;points=[];autosize=1;strokeColor=none;fillColor=none;" vertex="1" parent="1">
          <mxGeometry x="145" y="455" width="70" height="30" as="geometry" />
        </mxCell>
        <mxCell id="PBC2gBNQ4anp6FJxkZ_d-23" value="i_start = 1" style="text;html=1;align=center;verticalAlign=middle;resizable=0;points=[];autosize=1;strokeColor=none;fillColor=none;" vertex="1" parent="1">
          <mxGeometry x="345" y="450" width="80" height="30" as="geometry" />
        </mxCell>
        <mxCell id="PBC2gBNQ4anp6FJxkZ_d-24" value="i_data == 0" style="text;html=1;align=center;verticalAlign=middle;resizable=0;points=[];autosize=1;strokeColor=none;fillColor=none;" vertex="1" parent="1">
          <mxGeometry x="555" y="445" width="80" height="30" as="geometry" />
        </mxCell>
        <mxCell id="PBC2gBNQ4anp6FJxkZ_d-26" value="i_data != 0" style="text;html=1;align=center;verticalAlign=middle;resizable=0;points=[];autosize=1;strokeColor=none;fillColor=none;" vertex="1" parent="1">
          <mxGeometry x="760" y="345" width="80" height="30" as="geometry" />
        </mxCell>
        <mxCell id="PBC2gBNQ4anp6FJxkZ_d-27" value="parola corrente != 0&amp;nbsp;&lt;br&gt;&amp;amp;&amp;amp;&lt;br&gt;indice &amp;lt; 2k-1" style="text;html=1;align=center;verticalAlign=middle;resizable=0;points=[];autosize=1;strokeColor=none;fillColor=none;" vertex="1" parent="1">
          <mxGeometry x="760" y="520" width="130" height="60" as="geometry" />
        </mxCell>
        <mxCell id="PBC2gBNQ4anp6FJxkZ_d-31" style="edgeStyle=orthogonalEdgeStyle;rounded=0;orthogonalLoop=1;jettySize=auto;html=1;entryX=0.515;entryY=1.017;entryDx=0;entryDy=0;entryPerimeter=0;" edge="1" parent="1" source="PBC2gBNQ4anp6FJxkZ_d-29" target="PBC2gBNQ4anp6FJxkZ_d-27">
          <mxGeometry relative="1" as="geometry" />
        </mxCell>
        <mxCell id="PBC2gBNQ4anp6FJxkZ_d-29" value="per verificare questa condizione utilizziamo un segnale&lt;br&gt;&quot;parola corrente&quot; che sarà uguale a &#39;0&#39; nel caso la parola&lt;br&gt;corrente è = 0, altrimenti sarà 1. Ogni volta che si controlla&amp;nbsp;&lt;br&gt;una nuova parola il segnale dovrà tornare a 0." style="text;html=1;align=center;verticalAlign=middle;resizable=0;points=[];autosize=1;strokeColor=none;fillColor=none;" vertex="1" parent="1">
          <mxGeometry x="657" y="620" width="340" height="70" as="geometry" />
        </mxCell>
        <mxCell id="PBC2gBNQ4anp6FJxkZ_d-30" value="parola corrente = 0" style="text;html=1;align=center;verticalAlign=middle;resizable=0;points=[];autosize=1;strokeColor=none;fillColor=none;" vertex="1" parent="1">
          <mxGeometry x="1200" y="390" width="120" height="30" as="geometry" />
        </mxCell>
        <mxCell id="PBC2gBNQ4anp6FJxkZ_d-33" value="indice &amp;gt;= 2k-1&amp;nbsp;" style="text;html=1;align=center;verticalAlign=middle;resizable=0;points=[];autosize=1;strokeColor=none;fillColor=none;" vertex="1" parent="1">
          <mxGeometry x="660" y="755" width="100" height="30" as="geometry" />
        </mxCell>
        <mxCell id="PBC2gBNQ4anp6FJxkZ_d-35" value="indice &amp;lt; 2k-1" style="text;html=1;align=center;verticalAlign=middle;resizable=0;points=[];autosize=1;strokeColor=none;fillColor=none;" vertex="1" parent="1">
          <mxGeometry x="1280" y="500" width="90" height="30" as="geometry" />
        </mxCell>
        <mxCell id="PBC2gBNQ4anp6FJxkZ_d-37" value="i_rst = 0&lt;br&gt;&amp;amp;&amp;amp;&amp;nbsp;&lt;br&gt;i_start = 1" style="text;html=1;align=center;verticalAlign=middle;resizable=0;points=[];autosize=1;strokeColor=none;fillColor=none;" vertex="1" parent="1">
          <mxGeometry x="240" y="250" width="80" height="60" as="geometry" />
        </mxCell>
        <mxCell id="PBC2gBNQ4anp6FJxkZ_d-41" value="indice &amp;gt;= 2k-1&amp;nbsp;" style="text;html=1;align=center;verticalAlign=middle;resizable=0;points=[];autosize=1;strokeColor=none;fillColor=none;" vertex="1" parent="1">
          <mxGeometry x="880" y="840" width="100" height="30" as="geometry" />
        </mxCell>
        <mxCell id="PBC2gBNQ4anp6FJxkZ_d-45" style="edgeStyle=orthogonalEdgeStyle;rounded=0;orthogonalLoop=1;jettySize=auto;html=1;strokeColor=#33FF33;" edge="1" parent="1" source="PBC2gBNQ4anp6FJxkZ_d-44" target="PBC2gBNQ4anp6FJxkZ_d-7">
          <mxGeometry relative="1" as="geometry" />
        </mxCell>
        <mxCell id="PBC2gBNQ4anp6FJxkZ_d-44" value="All States" style="ellipse;whiteSpace=wrap;html=1;strokeColor=#65FF36;" vertex="1" parent="1">
          <mxGeometry x="20" y="585" width="120" height="80" as="geometry" />
        </mxCell>
        <mxCell id="PBC2gBNQ4anp6FJxkZ_d-46" value="i_rst = 1" style="text;html=1;align=center;verticalAlign=middle;resizable=0;points=[];autosize=1;strokeColor=#33FF33;fillColor=none;" vertex="1" parent="1">
          <mxGeometry x="75" y="535" width="70" height="30" as="geometry" />
        </mxCell>
      </root>
    </mxGraphModel>
  </diagram>
</mxfile>
